<?xml version="1.0" encoding="UTF-8" standalone="no"?>
<!-- Created with Inkscape (http://www.inkscape.org/) -->

<svg
   width="160"
   height="35"
   viewBox="0 0 42.333332 9.2604169"
   version="1.1"
   id="svg847"
   sodipodi:docname="logo-dark.svg"
   inkscape:version="1.1 (c4e8f9e, 2021-05-24)"
   xmlns:inkscape="http://www.inkscape.org/namespaces/inkscape"
   xmlns:sodipodi="http://sodipodi.sourceforge.net/DTD/sodipodi-0.dtd"
   xmlns="http://www.w3.org/2000/svg"
   xmlns:svg="http://www.w3.org/2000/svg">
  <sodipodi:namedview
     id="namedview849"
     pagecolor="#ffffff"
     bordercolor="#666666"
     borderopacity="1.0"
     inkscape:pageshadow="2"
     inkscape:pageopacity="0.0"
     inkscape:pagecheckerboard="0"
     inkscape:document-units="mm"
     showgrid="false"
     units="px"
     inkscape:zoom="4.5410152"
     inkscape:cx="85.663663"
     inkscape:cy="22.572045"
     inkscape:window-width="1411"
     inkscape:window-height="691"
     inkscape:window-x="325"
     inkscape:window-y="261"
     inkscape:window-maximized="0"
     inkscape:current-layer="svg847">
    <inkscape:grid
       type="xygrid"
       id="grid28748" />
  </sodipodi:namedview>
  <defs
     id="defs844" />
  <g
     inkscape:groupmode="layer"
     id="layer2"
     inkscape:label="Background"
     style="display:none"
     sodipodi:insensitive="true">
    <rect
       style="opacity:0.875;fill:#000000;stroke-width:7.50001"
       id="rect877"
       width="42.333332"
       height="9.260417"
       x="0"
       y="0" />
  </g>
  <g
     inkscape:label="Layer 1"
     inkscape:groupmode="layer"
     id="layer1"
     style="display:inline">
    <text
       xml:space="preserve"
       style="font-style:normal;font-variant:normal;font-weight:normal;font-stretch:normal;font-size:3.45722px;line-height:0;font-family:'系統字體';-inkscape-font-specification:'系統字體';fill:#000000;fill-opacity:1;stroke:none;stroke-width:0.264583"
       x="8.5054903"
       y="5.7871943"
       id="text1652"
       inkscape:export-filename="/Users/jess.mac/Projects/personal/tipid_shopping_hints/app/assets/images/logo-light.png"
       inkscape:export-xdpi="24.075899"
       inkscape:export-ydpi="24.075899"><tspan
         sodipodi:role="line"
         id="tspan1650"
         style="font-style:normal;font-variant:normal;font-weight:normal;font-stretch:normal;font-size:3.45722px;font-family:Austria;-inkscape-font-specification:Austria;fill:#000000;stroke-width:0.264583"
         x="8.5054903"
         y="5.7871943">TipidShoppingHints</tspan></text>
  </g>
  <g
     inkscape:groupmode="layer"
     id="layer3"
     inkscape:label="logo"
     style="display:inline">
    <g
       id="g7344"
       transform="matrix(0.01562654,0,0,0.01562654,9.2060761,4.3116389)"
       inkscape:export-filename="/Users/jess.mac/Projects/personal/tipid_shopping_hints/app/assets/images/logo-light.png"
       inkscape:export-xdpi="24.075899"
       inkscape:export-ydpi="24.075899">
      <path
         style="fill:#f4d5da;stroke-width:0.264583"
         d="m -366.61779,232.12472 c 0.25743,-0.0671 0.61462,-0.0627 0.79375,0.01 0.17913,0.0725 -0.0315,0.12735 -0.46806,0.12198 -0.43656,-0.005 -0.58312,-0.0647 -0.32569,-0.13179 z m 162.18957,0 c 0.25744,-0.0671 0.61463,-0.0627 0.79375,0.01 0.17915,0.0725 -0.0315,0.12735 -0.46804,0.12198 -0.43657,-0.005 -0.58312,-0.0647 -0.32571,-0.13179 z m -186.37159,-10.86299 c -0.3291,-0.41966 -0.31975,-0.429 0.0999,-0.0999 0.44073,0.34565 0.58089,0.56293 0.36312,0.56293 -0.0549,0 -0.2633,-0.20836 -0.46302,-0.46302 z m 57.7547,-21.23282 c 0,-0.3638 0.0601,-0.51263 0.13345,-0.33073 0.0734,0.1819 0.0734,0.47956 0,0.66146 -0.0734,0.1819 -0.13345,0.0331 -0.13345,-0.33073 z m 95.5575,-1.85208 c 0,-0.94589 0.048,-1.33284 0.1067,-0.8599 0.0587,0.47295 0.0587,1.24685 0,1.7198 -0.0587,0.47294 -0.1067,0.086 -0.1067,-0.8599 z m 66.675,0 c 0,-0.94589 0.048,-1.33284 0.10671,-0.8599 0.0587,0.47295 0.0587,1.24685 0,1.7198 -0.0587,0.47294 -0.10671,0.086 -0.10671,-0.8599 z m -162.2325,-1.85208 c 0,-0.36381 0.0601,-0.51263 0.13345,-0.33073 0.0734,0.1819 0.0734,0.47955 0,0.66146 -0.0734,0.1819 -0.13345,0.0331 -0.13345,-0.33073 z m -73.13293,-7.06589 c 0.32743,-0.0631 0.86321,-0.0631 1.19063,0 0.32742,0.0631 0.0595,0.11465 -0.59531,0.11465 -0.65485,0 -0.92274,-0.0516 -0.59532,-0.11465 z m 237.33126,0.0114 c 0.1819,-0.0734 0.47955,-0.0734 0.66145,0 0.18191,0.0734 0.0331,0.13346 -0.33072,0.13346 -0.36381,0 -0.51263,-0.0601 -0.33073,-0.13346 z m -241.28347,-0.27009 c 0.19099,-0.0764 0.4192,-0.067 0.50712,0.0209 0.0879,0.0879 -0.0684,0.15046 -0.34727,0.13898 -0.30822,-0.0127 -0.37092,-0.0754 -0.15985,-0.15986 z m -39.37331,-17.14936 c -0.64268,-0.65485 -1.10898,-1.19063 -1.03622,-1.19063 0.0728,0 0.65812,0.53578 1.30081,1.19063 0.64268,0.65484 1.10898,1.19062 1.03621,1.19062 -0.0728,0 -0.65812,-0.53578 -1.3008,-1.19062 z m 103.91511,-22.55573 c 32.48752,-0.037 85.64893,-0.037 118.13646,0 32.48752,0.037 5.90682,0.0673 -59.06823,0.0673 -64.97506,0 -91.55576,-0.0303 -59.06823,-0.0673 z M -464.56392,139.285 c 0.0127,-0.30824 0.0754,-0.37092 0.15985,-0.15986 0.0764,0.191 0.067,0.4192 -0.0209,0.50712 -0.0879,0.0879 -0.15046,-0.0684 -0.13897,-0.34726 z m 0,-8.46667 c 0.0127,-0.30824 0.0754,-0.37092 0.15985,-0.15986 0.0764,0.191 0.067,0.4192 -0.0209,0.50713 -0.0879,0.0879 -0.15046,-0.0684 -0.13897,-0.34727 z m 86.27835,-10.09825 c 14.50411,-0.0378 38.31661,-0.0378 52.91666,-2e-5 14.60005,0.0378 2.73306,0.0687 -26.37111,0.0687 -29.10416,3e-5 -41.04966,-0.0309 -26.54555,-0.0687 z m 118.31091,-2e-5 c 14.67282,-0.0378 38.60438,-0.0378 53.18125,2e-5 14.57688,0.0378 2.57183,0.0687 -26.67785,0.0687 -29.24969,0 -41.17621,-0.0309 -26.5034,-0.0687 z m 83.20691,-0.24689 c 0.19101,-0.0764 0.41921,-0.067 0.50713,0.0209 0.0879,0.0879 -0.0684,0.15047 -0.34727,0.13898 -0.30824,-0.0127 -0.37092,-0.0754 -0.15986,-0.15986 z M -288.30113,83.958055 c 0.25744,-0.06707 0.61462,-0.06268 0.79375,0.0098 0.17915,0.07247 -0.0315,0.127344 -0.46805,0.121973 -0.43656,-0.0053 -0.58312,-0.06469 -0.3257,-0.131789 z m 7.9375,0 c 0.25744,-0.06707 0.61462,-0.06268 0.79375,0.0098 0.17915,0.07247 -0.0315,0.127344 -0.46805,0.121973 -0.43656,-0.0053 -0.58312,-0.06469 -0.3257,-0.131789 z m -11.76245,-0.261964 c 0.191,-0.07644 0.4192,-0.06705 0.50712,0.0209 0.0879,0.08792 -0.0684,0.150469 -0.34726,0.138986 -0.30824,-0.0127 -0.37092,-0.07541 -0.15986,-0.159862 z m 18.25625,-0.264583 c 0.191,-0.07644 0.4192,-0.06705 0.50712,0.0209 0.0879,0.08792 -0.0684,0.150468 -0.34726,0.138985 -0.30824,-0.0127 -0.37092,-0.07541 -0.15986,-0.159861 z m -66.92373,-20.919785 c -0.3291,-0.419655 -0.31975,-0.428995 0.0999,-0.09991 0.44073,0.345651 0.58089,0.562927 0.36312,0.562927 -0.0549,0 -0.2633,-0.208359 -0.46302,-0.463021 z m 115.92125,-2.579687 c 0.79042,-0.800365 1.49667,-1.455209 1.56943,-1.455209 0.0728,0 -0.51443,0.654844 -1.30484,1.455209 -0.79042,0.800364 -1.49667,1.455208 -1.56943,1.455208 -0.0728,0 0.51443,-0.654844 1.30484,-1.455208 z m -60.38228,0.730673 c 0.76888,-0.0536 1.95951,-0.05305 2.64584,0 0.68635,0.05432 0.0573,0.09819 -1.39793,0.0975 -1.45521,0 -2.01676,-0.04514 -1.24791,-0.09874 z m -4.75483,-0.249952 c 0.19101,-0.07644 0.41921,-0.06705 0.50713,0.0209 0.0879,0.08792 -0.0684,0.150469 -0.34726,0.138986 -0.30824,-0.0127 -0.37092,-0.07541 -0.15987,-0.159861 z m 11.64167,0 c 0.191,-0.07644 0.41921,-0.06705 0.50713,0.0209 0.0879,0.08792 -0.0684,0.150469 -0.34727,0.138986 -0.30824,-0.0127 -0.37092,-0.07541 -0.15986,-0.159861 z m -67.45289,-2.928117 c -0.32911,-0.419656 -0.31975,-0.428996 0.0999,-0.09991 0.25466,0.199734 0.46302,0.408094 0.46302,0.463021 0,0.217779 -0.21728,0.0776 -0.56292,-0.363114 z m 103.22125,-12.898438 c 0.34176,-0.363802 0.68093,-0.661458 0.75369,-0.661458 0.0728,0 -0.14734,0.297656 -0.48911,0.661458 -0.34176,0.363802 -0.68093,0.661459 -0.75369,0.661459 -0.0728,0 0.14735,-0.297657 0.48911,-0.661459 z m -84.15174,-1.124479 -0.9118,-0.992188 0.99219,0.9118 c 0.9235,0.84868 1.11384,1.072575 0.9118,1.072575 -0.0442,0 -0.4907,-0.446484 -0.99219,-0.992187 z m 86.26841,-0.992188 c 0.34176,-0.363802 0.68093,-0.661458 0.75369,-0.661458 0.0728,0 -0.14735,0.297656 -0.48911,0.661458 -0.34176,0.363803 -0.68093,0.661459 -0.75369,0.661459 -0.0728,0 0.14735,-0.297656 0.48911,-0.661459 z m 39.97296,-36.7991312 c 0.0127,-0.3082263 0.0754,-0.3709193 0.15986,-0.1598533 0.0764,0.1909948 0.067,0.4192006 -0.0209,0.507119 -0.0879,0.087918 -0.15047,-0.068353 -0.13899,-0.3472657 z M -367.72642,5.1412372 c 0.0127,-0.3082264 0.0754,-0.3709194 0.15985,-0.1598533 0.0764,0.1909947 0.067,0.4192005 -0.0209,0.5071189 -0.0879,0.087918 -0.15046,-0.068352 -0.13897,-0.3472656 z M -223.7931,3.5537371 c 0.0127,-0.3082263 0.0754,-0.3709193 0.15986,-0.1598533 0.0764,0.1909948 0.067,0.4192006 -0.0209,0.507119 -0.0879,0.087918 -0.15047,-0.068353 -0.13898,-0.3472657 z m 23.54792,-1.3229166 c 0.0127,-0.3082264 0.0754,-0.3709194 0.15986,-0.1598534 0.0764,0.1909948 0.067,0.4192006 -0.0209,0.507119 -0.0879,0.087918 -0.15047,-0.068353 -0.13899,-0.3472656 z M -367.96031,1.4591182 c 0.005,-0.4365625 0.0647,-0.58312583 0.13177,-0.3256942 0.0671,0.2574317 0.0627,0.6146192 -0.01,0.79375 -0.0725,0.1791309 -0.12737,-0.031493 -0.12197,-0.4680558 z m 144.4527,-1.19062504 c 0,-0.36380209 0.0601,-0.51263022 0.13345,-0.33072917 0.0734,0.18190104 0.0734,0.47955729 0,0.66145834 -0.0734,0.18190104 -0.13345,0.0330729 -0.13345,-0.33072917 z m -121.16937,-0.92604168 c 0.005,-0.43656248 0.0647,-0.58312578 0.13178,-0.32569415 0.0671,0.25743165 0.0627,0.61461915 -0.01,0.79375001 -0.0725,0.17913085 -0.12736,-0.0314934 -0.12197,-0.46805586 z M -199.9499,-4.8908819 c 0.005,-0.4365625 0.0647,-0.5831258 0.13178,-0.3256942 0.0671,0.2574317 0.0627,0.6146192 -0.01,0.79375 -0.0725,0.1791309 -0.12735,-0.031493 -0.12198,-0.4680558 z m -165.41616,-7.8879991 c 0,-0.04553 0.38696,-0.432488 0.8599,-0.859896 l 0.85989,-0.777105 -0.7771,0.859896 c -0.72437,0.801544 -0.94269,0.981511 -0.94269,0.777105 z m 17.04049,-0.777105 -0.50403,-0.595313 0.59531,0.504029 c 0.55945,0.473662 0.71577,0.686596 0.50403,0.686596 -0.0502,0 -0.3181,-0.26789 -0.59531,-0.595312 z m -7.03593,-3.289594 c 0.191,-0.07643 0.4192,-0.06703 0.50712,0.02088 0.0879,0.08792 -0.0684,0.150452 -0.34727,0.138964 -0.30822,-0.0127 -0.37092,-0.07539 -0.15985,-0.159851 z m 142.34584,0 c 0.191,-0.07643 0.4192,-0.06703 0.50712,0.02088 0.0879,0.08792 -0.0684,0.150452 -0.34726,0.138964 -0.30824,-0.0127 -0.37092,-0.07539 -0.15986,-0.159851 z m -142.48963,-11.644281 c 0.25743,-0.06708 0.61462,-0.06267 0.79375,0.0098 0.17913,0.07248 -0.0315,0.127363 -0.46806,0.12197 -0.43656,-0.0054 -0.58312,-0.06469 -0.32569,-0.131773 z m 2.24392,0.0081 c 0.1819,-0.0734 0.47956,-0.0734 0.66146,0 0.1819,0.0734 0.0331,0.133453 -0.33073,0.133453 -0.3638,0 -0.51263,-0.06005 -0.33073,-0.133453 z m -15.02935,-5.84404 -0.9118,-0.992188 0.99219,0.911799 c 0.54571,0.501489 0.99219,0.947973 0.99219,0.992188 0,0.202041 -0.2239,0.01169 -1.07258,-0.911799 z m 132.08311,-2.976563 c 0,-0.363802 0.0601,-0.51263 0.13345,-0.330729 0.0734,0.181901 0.0734,0.479557 0,0.661458 -0.0734,0.181901 -0.13345,0.03307 -0.13345,-0.330729 z m 53.68951,0.110244 c 0.0127,-0.308226 0.0754,-0.370919 0.15987,-0.159853 0.0764,0.190995 0.067,0.4192 -0.0209,0.507119 -0.0879,0.08792 -0.15047,-0.06835 -0.13898,-0.347266 z m -53.71041,-1.852083 c 0.0127,-0.308227 0.0754,-0.37092 0.15986,-0.159853 0.0764,0.190994 0.067,0.4192 -0.0209,0.507118 -0.0879,0.08792 -0.15047,-0.06835 -0.13899,-0.347265 z m 53.71041,0 c 0.0127,-0.308227 0.0754,-0.37092 0.15987,-0.159853 0.0764,0.190994 0.067,0.4192 -0.0209,0.507118 -0.0879,0.08792 -0.15047,-0.06835 -0.13898,-0.347265 z m -3.34481,-7.32014 -0.7771,-0.859896 0.85989,0.777105 c 0.80156,0.724371 0.98153,0.942687 0.77711,0.942687 -0.0455,0 -0.43249,-0.386953 -0.8599,-0.859896 z m -148.52601,-0.08819 c 0.0127,-0.308226 0.0754,-0.370919 0.15985,-0.159853 0.0764,0.190995 0.067,0.419201 -0.0209,0.507119 -0.0879,0.08792 -0.15046,-0.06835 -0.13897,-0.347266 z m -39.64166,-1.830035 c 0.003,-0.582084 0.0571,-0.789054 0.1204,-0.459936 0.0633,0.329118 0.0609,0.805368 -0.005,1.058333 -0.0662,0.252966 -0.11801,-0.01632 -0.11507,-0.598397 z m 164.70953,-6.147197 c 0.62233,-0.05589 1.57483,-0.0551 2.11667,0.0019 0.54186,0.05685 0.0327,0.102581 -1.13147,0.101621 -1.16416,-0.0011 -1.6075,-0.04748 -0.9852,-0.10337 z m -158.95542,-7.87572 c 0.34177,-0.363802 0.68094,-0.661458 0.7537,-0.661458 0.0728,0 -0.14734,0.297656 -0.48912,0.661458 -0.34178,0.363802 -0.68094,0.661458 -0.7537,0.661458 -0.0728,0 0.14734,-0.297656 0.48912,-0.661458 z m 290.3093,-3.307292 c 0,-0.509323 0.05445,-0.717682 0.120994,-0.463021 0.06657,0.254662 0.06657,0.671381 0,0.926042 -0.06654,0.254661 -0.120994,0.0463 -0.120994,-0.463021 z m -276.87696,-2.573001 c 0.47555,-0.05889 1.18992,-0.05767 1.5875,0.0027 0.39758,0.06037 0.008,0.108551 -0.86464,0.107067 -0.87312,-0.0016 -1.19841,-0.05088 -0.72286,-0.109765 z m 276.87696,-1.660332 c 0,-0.509323 0.05445,-0.717683 0.120994,-0.463021 0.06657,0.254661 0.06657,0.67138 0,0.926042 -0.06654,0.254661 -0.120994,0.0463 -0.120994,-0.463021 z m -371.85058,-40.66199 c 0.19099,-0.0764 0.4192,-0.067 0.50712,0.0209 0.0879,0.0879 -0.0684,0.15046 -0.34727,0.13897 -0.30822,-0.0127 -0.37092,-0.0754 -0.15985,-0.15985 z m 331.52292,0 c 0.191,-0.0764 0.41921,-0.067 0.50713,0.0209 0.0879,0.0879 -0.0684,0.15046 -0.34727,0.13897 -0.30824,-0.0127 -0.37092,-0.0754 -0.15986,-0.15985 z m -461.1529,-62.98853 c -0.3291,-0.41965 -0.31974,-0.42901 0.0999,-0.0999 0.25466,0.19972 0.46302,0.40808 0.46302,0.46302 0,0.21776 -0.21727,0.0776 -0.56292,-0.36312 z m 11.36123,-34.64272 c 0.19099,-0.0764 0.4192,-0.067 0.50712,0.0209 0.0879,0.0879 -0.0684,0.15046 -0.34727,0.13897 -0.30822,-0.0127 -0.37092,-0.0754 -0.15985,-0.15985 z"
         id="path7356" />
      <path
         style="fill:#efbdc7;stroke-width:0.264583"
         d="m -226.49357,223.37839 c -0.32908,-0.41965 -0.31975,-0.42899 0.0999,-0.0999 0.25466,0.19973 0.46302,0.40809 0.46302,0.46302 0,0.21778 -0.21727,0.0776 -0.56293,-0.36312 z m -163.09851,-0.92604 -0.7771,-0.8599 0.85989,0.77711 c 0.80155,0.72438 0.98151,0.94269 0.77711,0.94269 -0.0455,0 -0.43249,-0.38696 -0.8599,-0.8599 z m 160.98185,-1.19062 c -0.32909,-0.41966 -0.31975,-0.429 0.0999,-0.0999 0.44072,0.34565 0.5809,0.56293 0.36312,0.56293 -0.0549,0 -0.26329,-0.20836 -0.46302,-0.46302 z m 1.75355,-159.345319 c 0.26339,-0.291042 0.53843,-0.529167 0.61119,-0.529167 0.0728,0 -0.0832,0.238125 -0.34661,0.529167 -0.26339,0.291041 -0.53842,0.529166 -0.61118,0.529166 -0.0728,0 0.0832,-0.238125 0.3466,-0.529166 z m 3.57187,-3.53949 c 0,-0.05493 0.20836,-0.263287 0.46303,-0.463021 0.41965,-0.329089 0.42899,-0.319749 0.0999,0.09991 -0.34565,0.440716 -0.56293,0.580892 -0.56293,0.363114 z m -18.52083,-14.552073 c 0,-0.05494 0.20836,-0.2633 0.46302,-0.463021 0.41966,-0.329107 0.429,-0.319749 0.0999,0.0999 -0.34565,0.44073 -0.56293,0.580887 -0.56293,0.363125 z m 21.82813,-57.314688 c 0.26339,-0.291042 0.53842,-0.529167 0.61118,-0.529167 0.0728,0 -0.0832,0.238125 -0.3466,0.529167 -0.26339,0.291041 -0.53843,0.529166 -0.61119,0.529166 -0.0728,0 0.0832,-0.238125 0.34661,-0.529166 z m 34.13125,-16.404167 c 0.26339,-0.291042 0.53842,-0.529167 0.61118,-0.529167 0.0728,0 -0.0832,0.238125 -0.3466,0.529167 -0.26339,0.291041 -0.53843,0.529166 -0.61119,0.529166 -0.0728,0 0.0832,-0.238125 0.34661,-0.529166 z m -290.92941,-116.879693 -0.64143,-0.7276 0.7276,0.64143 c 0.40019,0.35279 0.72761,0.68021 0.72761,0.72761 0,0.2075 -0.21426,0.0386 -0.81378,-0.64144 z"
         id="path7354" />
      <path
         style="fill:#e899ac;stroke-width:0.264583"
         d="m -333.01483,198.17683 c 0,-0.65484 0.0516,-0.92273 0.11466,-0.59531 0.0631,0.32742 0.0631,0.8632 0,1.19062 -0.0631,0.32742 -0.11466,0.0595 -0.11466,-0.59531 z m -69.97784,-8.92741 c 0.91521,-0.0518 2.34396,-0.0514 3.175,0 0.83104,0.0523 0.0822,0.0947 -1.66401,0.0942 -1.74625,0 -2.4262,-0.0433 -1.51099,-0.0952 z m 93.25526,-0.003 c 13.49706,-0.0379 35.58315,-0.0379 49.08021,0 13.49706,0.0379 2.45401,0.0689 -24.54011,0.0689 -26.99411,0 -38.03716,-0.031 -24.5401,-0.0689 z m 138.37708,0.009 c 0.40019,-0.0606 1.05503,-0.0606 1.45521,0 0.40019,0.0606 0.0728,0.11022 -0.7276,0.11022 -0.80037,0 -1.12779,-0.0496 -0.72761,-0.11022 z m -237.97617,-0.2558 c 0.19099,-0.0764 0.4192,-0.067 0.50712,0.0209 0.0879,0.0879 -0.0684,0.15047 -0.34727,0.13899 -0.30822,-0.0127 -0.37092,-0.0754 -0.15985,-0.15987 z m 3.95221,-39.68171 c 0.1819,-0.0734 0.47956,-0.0734 0.66146,0 0.1819,0.0734 0.0331,0.13346 -0.33073,0.13346 -0.3638,0 -0.51263,-0.0601 -0.33073,-0.13346 z m -59.17963,-11.0916 c 0.0127,-0.30824 0.0754,-0.37092 0.15985,-0.15986 0.0764,0.19101 0.067,0.41921 -0.0209,0.50713 -0.0879,0.0879 -0.15046,-0.0684 -0.13897,-0.34727 z m 0,-6.35 c 0.0127,-0.30824 0.0754,-0.37092 0.15985,-0.15986 0.0764,0.19101 0.067,0.41921 -0.0209,0.50713 -0.0879,0.0879 -0.15046,-0.0684 -0.13897,-0.34727 z m 59.19617,-11.1389 c 0.19099,-0.0764 0.4192,-0.067 0.50712,0.0209 0.0879,0.0879 -0.0684,0.15047 -0.34727,0.13899 -0.30822,-0.0127 -0.37092,-0.0754 -0.15985,-0.15987 z m 109.65326,-0.0169 c 1.70987,-0.0461 4.50783,-0.0461 6.2177,0 1.70987,0.0461 0.31089,0.0838 -3.10885,0.0838 -3.41974,0 -4.81872,-0.0377 -3.10885,-0.0838 z m 118.15299,-0.24772 c 0.19101,-0.0764 0.41921,-0.0671 0.50713,0.0209 0.0879,0.0879 -0.0684,0.15047 -0.34727,0.13898 -0.30824,-0.0127 -0.37092,-0.0754 -0.15986,-0.15986 z M -289.48025,83.960595 c 0.191,-0.07644 0.41921,-0.06705 0.50713,0.0209 0.0879,0.08792 -0.0684,0.150468 -0.34727,0.138986 -0.30824,-0.0127 -0.37092,-0.07541 -0.15986,-0.159862 z m 10.58333,0 c 0.19101,-0.07644 0.41921,-0.06705 0.50713,0.0209 0.0879,0.08792 -0.0684,0.150468 -0.34726,0.138986 -0.30824,-0.0127 -0.37092,-0.07541 -0.15987,-0.159862 z m 78.65174,-80.6715206 c 0.0127,-0.3082263 0.0754,-0.3709193 0.15986,-0.1598533 0.0764,0.1909948 0.067,0.4192006 -0.0209,0.507119 -0.0879,0.087918 -0.15047,-0.068353 -0.13899,-0.3472657 z M -367.991,2.4953244 c 0.0127,-0.3082263 0.0754,-0.3709194 0.15985,-0.1598533 0.0764,0.1909948 0.067,0.4192006 -0.0209,0.507119 -0.0879,0.087918 -0.15045,-0.068352 -0.13896,-0.3472657 z m 144.49318,-3.6820396 c 0.005,-0.4365625 0.0647,-0.5831258 0.13179,-0.3256941 0.0671,0.2574316 0.0627,0.61461911 -0.01,0.79374996 -0.0725,0.17913086 -0.12735,-0.0314933 -0.12197,-0.46805586 z m 23.58104,-1.4552084 c 0,-0.9458854 0.048,-1.3328385 0.10671,-0.8598958 0.0587,0.4729427 0.0587,1.246849 0,1.7197917 -0.0587,0.4729427 -0.10671,0.08599 -0.10671,-0.8598959 z m -144.7361,-0.1322916 c 0.002,-0.7276042 0.0534,-0.9938571 0.11418,-0.5916745 0.0608,0.4021825 0.0592,0.997495 -0.004,1.3229167 -0.0628,0.3254216 -0.11255,-0.00362 -0.11057,-0.7312422 z m -23.54161,-1.5875 c 0.002,-0.8731251 0.0509,-1.1984144 0.10977,-0.7228655 0.0589,0.4755488 0.0577,1.1899238 -0.003,1.5875 -0.0604,0.3975761 -0.10855,0.00849 -0.10707,-0.8646345 z M -199.9806,-5.971263 c 0.0127,-0.3082264 0.0754,-0.3709194 0.15987,-0.1598533 0.0764,0.1909948 0.067,0.4192005 -0.0209,0.5071189 -0.0879,0.087918 -0.15047,-0.068352 -0.13898,-0.3472656 z m -174.09582,-40.745834 c 0.0127,-0.308226 0.0754,-0.370919 0.15985,-0.159853 0.0764,0.190995 0.067,0.4192 -0.0209,0.507119 -0.0879,0.08792 -0.15046,-0.06835 -0.13897,-0.347266 z m 162.91284,-7.699317 c 0.191,-0.07643 0.4192,-0.06703 0.50713,0.02088 0.0879,0.08792 -0.0684,0.150452 -0.34727,0.138964 -0.30824,-0.0127 -0.37092,-0.07539 -0.15986,-0.15985 z m 5.29167,0 c 0.191,-0.07643 0.4192,-0.06703 0.50712,0.02088 0.0879,0.08792 -0.0684,0.150452 -0.34726,0.138964 -0.30824,-0.0127 -0.37092,-0.07539 -0.15986,-0.15985 z m 127.915429,-13.313011 c 0,-0.654843 0.05159,-0.922734 0.114644,-0.595312 0.06308,0.327422 0.06308,0.863203 0,1.190625 -0.06305,0.327422 -0.114644,0.05953 -0.114644,-0.595313 z M -449.024,-110.50808 c 0.19099,-0.0764 0.4192,-0.067 0.50712,0.0209 0.0879,0.0879 -0.0684,0.15046 -0.34727,0.13897 -0.30822,-0.0127 -0.37092,-0.0754 -0.15985,-0.15985 z m 329.67084,0 c 0.191,-0.0764 0.4192,-0.067 0.50712,0.0209 0.0879,0.0879 -0.0684,0.15046 -0.34726,0.13897 -0.30824,-0.0127 -0.37092,-0.0754 -0.15986,-0.15985 z m -466.38993,-76.43819 c 0.0127,-0.30822 0.0754,-0.37092 0.15985,-0.15985 0.0764,0.191 0.067,0.4192 -0.0209,0.50712 -0.0879,0.0879 -0.15046,-0.0684 -0.13897,-0.34727 z m 0,-2.64583 c 0.0127,-0.30822 0.0754,-0.37092 0.15985,-0.15985 0.0764,0.19099 0.067,0.4192 -0.0209,0.50712 -0.0879,0.0879 -0.15046,-0.0684 -0.13897,-0.34727 z m 18.4338,-18.54172 c 0.1819,-0.0734 0.47956,-0.0734 0.66146,0 0.1819,0.0734 0.0331,0.13345 -0.33073,0.13345 -0.3638,0 -0.51263,-0.06 -0.33073,-0.13345 z m 2.38125,0 c 0.1819,-0.0734 0.47956,-0.0734 0.66146,0 0.1819,0.0734 0.0331,0.13345 -0.33073,0.13345 -0.3638,0 -0.51263,-0.06 -0.33073,-0.13345 z"
         id="path7352" />
      <path
         style="fill:#e4839c;stroke-width:0.264583"
         d="m -344.46397,223.74151 c 0,-0.0549 0.20836,-0.26329 0.46302,-0.46302 0.41964,-0.32909 0.429,-0.31975 0.0999,0.0999 -0.34564,0.44072 -0.56291,0.5809 -0.56291,0.36312 z m 163.5125,-1.35531 c 0.49366,-0.50932 0.95708,-0.92604 1.02984,-0.92604 0.0728,0 -0.2716,0.41672 -0.76526,0.92604 -0.49366,0.50933 -0.95708,0.92605 -1.02984,0.92605 -0.0728,0 0.2716,-0.41672 0.76526,-0.92605 z m -46.5867,-0.0661 -0.64143,-0.72761 0.72761,0.64143 c 0.68006,0.59952 0.84894,0.81378 0.64143,0.81378 -0.0474,0 -0.37481,-0.32742 -0.72761,-0.7276 z m -114.80914,-0.69522 c 0,-0.0549 0.20836,-0.26329 0.46302,-0.46302 0.41965,-0.32909 0.42901,-0.31975 0.0999,0.0999 -0.34564,0.44071 -0.56292,0.58089 -0.56292,0.36311 z m -78.87958,-78.15062 c -0.32911,-0.41965 -0.31975,-0.42899 0.0999,-0.0999 0.44073,0.34565 0.58089,0.56293 0.36313,0.56293 -0.0549,0 -0.2633,-0.20836 -0.46302,-0.46303 z m 0.16604,-16.99947 c 0.26339,-0.29105 0.53842,-0.52917 0.61118,-0.52917 0.0728,0 -0.0832,0.23812 -0.3466,0.52917 -0.26339,0.29104 -0.53842,0.52916 -0.61118,0.52916 -0.0728,0 0.0832,-0.23812 0.3466,-0.52916 z m 283.23646,-23.91241 c 0,-0.0549 0.20836,-0.26329 0.46302,-0.46302 0.41966,-0.32909 0.429,-0.31975 0.0999,0.0999 -0.34565,0.44072 -0.56293,0.5809 -0.56293,0.36312 z m -312.47292,-3.207387 c 0.34178,-0.363802 0.68094,-0.661458 0.7537,-0.661458 0.0728,0 -0.14734,0.297656 -0.48911,0.661458 -0.34178,0.363802 -0.68094,0.661457 -0.7537,0.661457 -0.0728,0 0.14734,-0.297655 0.48911,-0.661457 z m 316.17709,-0.496782 c 0,-0.05493 0.20836,-0.263287 0.46302,-0.463021 0.41966,-0.329088 0.429,-0.319748 0.0999,0.09991 -0.34565,0.440717 -0.56293,0.580893 -0.56293,0.363114 z m -314.325,-1.355301 c 0.34177,-0.363802 0.68093,-0.661459 0.7537,-0.661459 0.0728,0 -0.14735,0.297657 -0.48912,0.661459 -0.34178,0.363802 -0.68094,0.661458 -0.7537,0.661458 -0.0728,0 0.14734,-0.297656 0.48912,-0.661458 z m 105.02534,-37.372397 -0.9118,-0.992187 0.99219,0.911807 c 0.9235,0.848677 1.11384,1.072568 0.91179,1.072568 -0.0442,0 -0.49069,-0.446485 -0.99218,-0.992188 z m 120.92882,-2.547302 c 0,-0.05493 0.20836,-0.263287 0.46303,-0.463021 0.41965,-0.329089 0.42899,-0.319749 0.0999,0.09991 -0.34565,0.440716 -0.56293,0.580892 -0.56293,0.363114 z m -10.47617,-87.543324 -0.50403,-0.595313 0.59531,0.504029 c 0.55943,0.473662 0.71575,0.686596 0.50403,0.686596 -0.0502,0 -0.31811,-0.26789 -0.59531,-0.595312 z m 141.675749,-68.92396 c -0.329089,-0.419645 -0.319749,-0.429003 0.09991,-0.0999 0.440716,0.345644 0.580892,0.562917 0.363114,0.562917 -0.05493,0 -0.263287,-0.208359 -0.463021,-0.463021 z"
         id="path7350" />
      <path
         style="fill:#dc487b;stroke-width:0.264583"
         d="m -343.14106,222.3862 c 0.34178,-0.3638 0.68094,-0.66145 0.7537,-0.66145 0.0728,0 -0.14734,0.29765 -0.48911,0.66145 -0.34178,0.36381 -0.68094,0.66146 -0.7537,0.66146 -0.0728,0 0.14734,-0.29765 0.48911,-0.66146 z m 186.53126,-38.31508 c 0,-0.0455 0.38695,-0.43248 0.85989,-0.85989 l 0.8599,-0.77711 -0.77711,0.8599 c -0.72438,0.80155 -0.94268,0.98152 -0.94268,0.7771 z m -291.07543,-10.69898 c -0.3291,-0.41965 -0.31974,-0.42899 0.0999,-0.0999 0.44073,0.34566 0.58089,0.56293 0.36313,0.56293 -0.0549,0 -0.2633,-0.20836 -0.46303,-0.46302 z m 291.57083,-18.25625 c -0.32909,-0.41965 -0.31975,-0.42899 0.0999,-0.0999 0.44071,0.34566 0.58089,0.56293 0.36311,0.56293 -0.0549,0 -0.26328,-0.20836 -0.46302,-0.46302 z m 20.40668,-54.7026 c 0.79042,-0.800368 1.49667,-1.455212 1.56943,-1.455212 0.0728,0 -0.51443,0.654844 -1.30485,1.455212 -0.79041,0.80036 -1.49667,1.4552 -1.56943,1.4552 -0.0728,0 0.51443,-0.65484 1.30485,-1.4552 z m -206.13045,-38.695317 -0.64143,-0.727604 0.72761,0.641429 c 0.40018,0.352796 0.7276,0.680218 0.7276,0.727605 0,0.207512 -0.21426,0.03863 -0.81378,-0.64143 z m -3.175,-3.175 -0.64143,-0.727604 0.72761,0.641429 c 0.40018,0.352796 0.7276,0.680218 0.7276,0.727605 0,0.207512 -0.21426,0.03863 -0.81378,-0.64143 z m 101.09086,-12.866042 c 0,-0.05494 0.20836,-0.2633 0.46303,-0.463021 0.41965,-0.329107 0.42899,-0.319749 0.0999,0.0999 -0.34565,0.44073 -0.56293,0.580888 -0.56293,0.363125 z m -81.26083,-0.892291 c -0.32911,-0.419645 -0.31975,-0.429004 0.0999,-0.0999 0.44073,0.345643 0.58088,0.562917 0.36312,0.562917 -0.0549,0 -0.2633,-0.20836 -0.46302,-0.463021 z m -2.91042,-2.910417 c -0.3291,-0.419645 -0.31975,-0.429003 0.0999,-0.0999 0.44073,0.345644 0.58089,0.562917 0.36312,0.562917 -0.0549,0 -0.2633,-0.20836 -0.46302,-0.463021 z m 124.75966,-55.430209 -0.50403,-0.595313 0.59531,0.504029 c 0.55944,0.473662 0.71575,0.686596 0.50403,0.686596 -0.0502,0 -0.3181,-0.26789 -0.59531,-0.595312 z m -137.69049,-19.612917 c 0,-0.05494 0.20836,-0.263301 0.46302,-0.463021 0.41965,-0.329108 0.429,-0.319749 0.0999,0.0999 -0.34565,0.44073 -0.56292,0.580887 -0.56292,0.363125 z m 1.32292,-1.322917 c 0,-0.05494 0.20836,-0.2633 0.46302,-0.463021 0.41964,-0.329107 0.429,-0.319749 0.0999,0.0999 -0.34564,0.44073 -0.56291,0.580888 -0.56291,0.363125 z m 106.75937,-12.070938 c 0.2634,-0.291041 0.53843,-0.529166 0.61119,-0.529166 0.0728,0 -0.0832,0.238125 -0.3466,0.529166 -0.2634,0.291042 -0.53843,0.529167 -0.61119,0.529167 -0.0728,0 0.0832,-0.238125 0.3466,-0.529167 z m -107.17289,-15.941146 -0.77711,-0.859895 0.8599,0.777105 c 0.80154,0.724371 0.98151,0.942686 0.7771,0.942686 -0.0455,0 -0.43249,-0.386953 -0.85989,-0.859896 z m 249.895574,-35.321875 -0.641429,-0.727604 0.727604,0.641432 c 0.680059,0.599516 0.848942,0.813776 0.641429,0.813776 -0.04739,0 -0.374808,-0.327422 -0.727604,-0.727604 z M -579.94314,-202.27005 c 0.49365,-0.50932 0.95708,-0.92604 1.02984,-0.92604 0.0728,0 -0.2716,0.41672 -0.76526,0.92604 -0.49366,0.50932 -0.95709,0.92604 -1.02985,0.92604 -0.0728,0 0.27161,-0.41672 0.76527,-0.92604 z"
         id="path7348" />
      <path
         style="fill:#db3774;stroke-width:0.264583"
         d="m -371.0546,231.67588 c -7.17286,-1.1867 -13.31115,-4.32755 -18.39705,-9.41345 -4.82833,-4.82833 -7.95192,-10.70721 -9.42335,-17.7356 -0.85305,-4.07466 -0.52983,-11.99184 0.61094,-14.96462 0.0885,-0.23072 -1.54218,-0.34928 -6.31162,-0.4589 -8.1189,-0.18658 -13.25207,-0.92913 -19.79246,-2.8631 -19.15492,-5.66407 -33.31713,-19.54483 -38.24641,-37.48628 -2.22387,-8.09442 -2.47084,-16.04309 -0.75202,-24.20384 1.63814,-7.77767 5.47618,-15.78809 10.61829,-22.16148 1.64855,-2.0433 6.66756,-7.029395 7.86669,-7.815075 0.36833,-0.241353 0.6697,-0.597773 0.6697,-0.792083 0,-0.194283 -11.91349,-40.096295 -26.47441,-88.6711261 -14.56092,-48.5748309 -28.91551,-96.7117819 -31.89909,-106.9710059 -2.98357,-10.25921 -5.56595,-18.79198 -5.73861,-18.96171 -0.17267,-0.16972 -15.85159,-11.8234 -34.84206,-25.89706 -18.99047,-14.07367 -35.08893,-26.05653 -35.77436,-26.62858 -2.59628,-2.16686 -5.09528,-6.27042 -6.07059,-9.96842 -0.69487,-2.63468 -0.74344,-6.85331 -0.10856,-9.4286 0.25113,-1.01865 1.00578,-2.98318 1.67699,-4.36563 1.05266,-2.16807 1.56794,-2.85901 3.74898,-5.02708 1.76958,-1.75905 3.08452,-2.80609 4.38067,-3.48814 5.93868,-3.12503 12.91071,-3.20691 18.59669,-0.21841 1.86096,0.9781 75.65069,55.43298 79.06947,58.35118 1.79248,1.53003 3.67939,4.05403 4.74106,6.34183 0.47271,1.01865 2.91223,8.9363 5.42114,17.59479 2.50893,8.65849 4.63423,15.82098 4.72291,15.91664 0.0887,0.0957 1.17333,-0.15874 2.41035,-0.56536 2.8523,-0.93756 7.05262,-1.78847 10.45088,-2.11714 3.78348,-0.36593 327.90543,-0.36073 331.7875,0.005 8.19748,0.77297 15.57171,3.33927 22.103875,7.69237 3.472339,2.31399 8.612055,7.475757 10.915095,10.961893 4.598194,6.960315 6.721925,13.794574 6.985106,22.478149 0.154649,5.102849 -0.194681,8.657249 -1.274181,12.964583 -0.630766,2.516833 -40.056485,130.213076 -41.219175,133.505022 -2.98781,8.459629 -8.31789,16.510794 -15.67249,23.673593 -5.74106,5.59131 -11.25955,9.49061 -18.35073,12.96636 -6.21628,3.04691 -11.01045,4.65058 -17.916,5.99294 l -2.98608,0.58044 -116.28438,0.15616 c -108.0623,0.14513 -116.42422,0.18791 -118.26219,0.6051 -9.49376,2.15486 -14.55864,6.96072 -14.55864,13.81414 0,6.73087 4.99585,11.5724 14.1552,13.71794 l 2.38125,0.55779 120.91459,0.14301 c 113.55052,0.1343 121.00502,0.17084 122.39937,0.59989 6.97376,2.14595 12.10281,7.29906 14.03467,14.10052 0.46357,1.63205 0.59671,2.78159 0.59592,5.1444 0,3.69511 -0.4385,5.53786 -2.13215,8.98585 -1.04029,2.11786 -1.60075,2.872 -3.63773,4.89488 -2.75256,2.73346 -4.47683,3.83783 -7.76285,4.97205 -1.86941,0.64523 -2.89967,0.82595 -5.32304,0.93368 l -3.00501,0.13359 0.14134,0.82174 c 0.0777,0.45197 0.34219,1.95284 0.58772,3.33529 0.53332,3.00302 0.40032,8.50702 -0.2813,11.64167 -1.47691,6.79193 -4.49043,12.3191 -9.37914,17.20249 -4.01222,4.00786 -8.02799,6.50311 -13.12095,8.15292 -3.70652,1.20071 -5.70831,1.49979 -10.03768,1.49979 -2.31667,0 -4.73972,-0.15271 -5.82084,-0.36687 -13.45469,-2.66517 -23.85205,-13.04327 -26.73897,-26.68944 -0.67467,-3.18908 -0.79362,-8.43407 -0.25945,-11.44056 0.24563,-1.38245 0.51297,-2.9005 0.59409,-3.37344 l 0.14753,-0.85989 h -49.01562 -49.0156 l 0.17377,0.85989 c 1.47039,7.27618 1.2427,12.891 -0.76631,18.89694 -3.85157,11.51424 -13.21602,19.92657 -25.0059,22.46344 -2.67124,0.57478 -8.56105,0.71861 -11.24479,0.27461 z m 95.71583,-147.926528 c 16.54267,-1.755617 31.28216,-7.678659 43.93067,-17.653503 4.0838,-3.220535 10.73373,-10.050693 13.85803,-14.233605 9.1825,-12.293764 14.7674,-26.432296 16.87463,-42.7191389 0.67765,-5.2375356 1.07531,-14.0775216 0.72768,-16.1755246 -0.64429,-3.8881635 -3.0538,-7.0951015 -6.59403,-8.7763535 -3.29424,-1.564426 -7.35414,-1.483037 -10.68083,0.214122 -1.83327,0.935262 -3.87929,3.087658 -4.90188,5.156708 -0.95835,1.939073 -0.96195,1.9594301 -1.20079,6.7886925 -0.68429,13.8366295 -2.80709,22.9265035 -7.53435,32.2619295 -9.14355,18.056768 -26.36515,29.605492 -47.31901,31.731842 -4.18388,0.424577 -11.47805,0.183383 -15.61761,-0.51644 -6.3005,-1.065133 -11.76685,-2.797016 -17.19792,-5.448776 -17.20327,-8.399627 -28.54883,-23.975378 -32.24708,-44.270386 -0.66369,-3.6421484 -0.96607,-6.7228906 -1.44991,-14.772291 -0.20249,-3.3686671 -0.30606,-3.914701 -1.03998,-5.483048 -1.94964,-4.166296 -6.04715,-6.78797 -10.5965,-6.779863 -5.88635,0.01048 -10.76012,4.133987 -11.67811,9.8803619 -0.33515,2.0979447 0.0169,10.541143 0.65355,15.6761156 2.58955,20.8848405 10.64089,38.1325525 24.07441,51.5725365 13.78372,13.790348 32.26923,22.192483 52.25966,23.75326 3.34481,0.26117 12.39541,0.14187 15.67937,-0.206639 z m 54.01484,-110.605646 c 0.84858,-0.221028 2.27259,-0.804635 3.16445,-1.2969 3.7956,-2.095016 8.44195,-3.128246 11.66542,-2.5941 1.70956,0.283284 2.64002,0.683837 7.41236,3.19091 1.82816,0.960395 1.87624,0.969668 5.02708,0.969668 3.01043,0 3.27364,-0.04401 4.90107,-0.819515 6.21368,-2.960947 8.64404,-10.182336 5.50251,-16.349837 -2.07471,-4.073102 -9.34313,-8.295011 -17.21464,-9.999237 -3.54997,-0.768583 -10.91636,-0.833482 -14.67631,-0.129304 -7.01968,1.314685 -14.34496,4.446593 -17.31854,7.404505 -2.76939,2.754823 -4.0029,7.119662 -3.10843,10.999509 0.95245,4.131416 4.55507,7.776017 8.63563,8.736312 1.59647,0.375706 4.33274,0.324702 6.0094,-0.112011 z m -127.54875,-2.092053 c 6.7094,-1.832358 11.85593,-6.857402 13.97555,-13.64566 0.52576,-1.683817 0.61961,-2.545419 0.61961,-5.688542 0,-3.143123 -0.0939,-4.004726 -0.61961,-5.688542 -2.11284,-6.766531 -7.31554,-11.819342 -14.06476,-13.659551 -2.70156,-0.736595 -8.01128,-0.672849 -10.58333,0.127058 -3.5928,1.117359 -5.96624,2.545445 -8.6215,5.187519 -2.03303,2.022919 -2.59413,2.779548 -3.63775,4.905391 -1.71872,3.501027 -2.13747,5.289306 -2.13747,9.128125 0,3.817929 0.41978,5.629418 2.09518,9.041413 2.57582,5.245732 7.66629,9.208741 13.50598,10.514616 2.27126,0.507902 7.22073,0.39194 9.4681,-0.221827 z"
         id="path7346" />
    </g>
  </g>
</svg>
